<?xml version="1.0" encoding="utf-8"?>
<!-- Generator: Adobe Illustrator 18.0.0, SVG Export Plug-In . SVG Version: 6.00 Build 0)  -->
<!DOCTYPE svg PUBLIC "-//W3C//DTD SVG 1.1//EN" "http://www.w3.org/Graphics/SVG/1.1/DTD/svg11.dtd">
<svg version="1.1" id="Layer_1" xmlns="http://www.w3.org/2000/svg" xmlns:xlink="http://www.w3.org/1999/xlink" x="0px" y="0px"
	 viewBox="457 218 75 75" enable-background="new 457 218 75 75" xml:space="preserve">
<g>
	<g>
		<g>
			<g>
				<g>
					<linearGradient id="SVGID_1_" gradientUnits="userSpaceOnUse" x1="499.4578" y1="221.9771" x2="504.1098" y2="221.9771">
						<stop  offset="0" style="stop-color:#FF812D"/>
						<stop  offset="1" style="stop-color:#FFAF2D"/>
					</linearGradient>
					<path fill="url(#SVGID_1_)" d="M500.1,225.7c0.1,0.1,0.3,0.1,0.5,0.1c0.4,0,0.8-0.2,1-0.6l2.5-5.4c0.3-0.5,0-1.2-0.5-1.4
						c-0.5-0.3-1.2,0-1.4,0.5l-2.5,5.4C499.3,224.8,499.5,225.4,500.1,225.7z"/>
					<linearGradient id="SVGID_2_" gradientUnits="userSpaceOnUse" x1="472.4856" y1="255.5" x2="516.5426" y2="255.5">
						<stop  offset="0" style="stop-color:#FF812D"/>
						<stop  offset="1" style="stop-color:#FFAF2D"/>
					</linearGradient>
					<path fill="url(#SVGID_2_)" d="M501.8,259.3v-3.1h0.3c1.4,0,2.6-1.2,2.6-2.6v-2.1c0-1.1-0.7-2-1.6-2.4l13.4-29.3
						c0.3-0.5,0-1.2-0.5-1.4c-0.5-0.3-1.2,0-1.4,0.5l-13.8,30h-10l8.7-18.9c0.3-0.5,0-1.2-0.5-1.4c-0.5-0.3-1.2,0-1.4,0.5l-2.8,6.2
						l-7.5-16.4c-0.3-0.5-0.9-0.8-1.4-0.5c-0.5,0.3-0.8,0.9-0.5,1.4l8.3,18.1c0,0,0,0,0,0l-5,11l-13.7-30c-0.3-0.5-0.9-0.8-1.4-0.5
						c-0.5,0.3-0.8,0.9-0.5,1.4L486,249c-1,0.4-1.6,1.3-1.6,2.4v2.1c0,1.4,1.2,2.6,2.6,2.6h0.3v3.1c-6,2.8-10.3,8.9-10.3,16
						c0,9.7,7.9,17.6,17.6,17.6c9.7,0,17.6-7.9,17.6-17.6C512.1,268.2,507.9,262,501.8,259.3L501.8,259.3z M489.4,256.1h2.4
						c0.6,0,1.1-0.5,1.1-1.1s-0.5-1.1-1.1-1.1h-4.9c-0.2,0-0.4-0.2-0.4-0.4v-2.1c0-0.2,0.2-0.4,0.4-0.4h15.2c0.2,0,0.4,0.2,0.4,0.4
						v2.1c0,0.2-0.2,0.4-0.4,0.4h-5c-0.6,0-1.1,0.5-1.1,1.1s0.5,1.1,1.1,1.1h2.5v2.3c-1.6-0.5-3.3-0.8-5.1-0.8
						c-1.8,0-3.5,0.3-5.1,0.8L489.4,256.1L489.4,256.1z M494.5,290.6c-8.5,0-15.4-6.9-15.4-15.4s6.9-15.4,15.4-15.4
						s15.4,6.9,15.4,15.4C509.9,283.7,503,290.6,494.5,290.6L494.5,290.6z"/>
					<linearGradient id="SVGID_3_" gradientUnits="userSpaceOnUse" x1="480.9807" y1="275.2407" x2="508.0466" y2="275.2407">
						<stop  offset="0" style="stop-color:#FF812D"/>
						<stop  offset="1" style="stop-color:#FFAF2D"/>
					</linearGradient>
					<path fill="url(#SVGID_3_)" d="M494.5,261.7c-2.8,0-5.4,0.8-7.7,2.4c-0.5,0.3-0.6,1-0.3,1.5c0.3,0.5,1,0.6,1.5,0.3
						c1.9-1.3,4.1-2,6.5-2c6.3,0,11.3,5.1,11.3,11.3s-5.1,11.3-11.3,11.3s-11.3-5.1-11.3-11.3c0-2,0.5-4,1.6-5.8
						c0.3-0.5,0.1-1.2-0.4-1.5c-0.5-0.3-1.2-0.1-1.5,0.4c-1.2,2.1-1.9,4.5-1.9,6.9c0,7.5,6.1,13.5,13.5,13.5
						c7.5,0,13.5-6.1,13.5-13.5S502,261.7,494.5,261.7L494.5,261.7z"/>
					<linearGradient id="SVGID_4_" gradientUnits="userSpaceOnUse" x1="485.3434" y1="274.5403" x2="503.6846" y2="274.5403">
						<stop  offset="0" style="stop-color:#FF812D"/>
						<stop  offset="1" style="stop-color:#FFAF2D"/>
					</linearGradient>
					<path fill="url(#SVGID_4_)" d="M488.4,277.3l-0.1,4.4c0,0.5,0.2,1,0.6,1.3c0.4,0.3,1,0.4,1.4,0.2l4.2-1.5l4.2,1.5
						c0.2,0.1,0.3,0.1,0.5,0.1c0.3,0,0.6-0.1,0.9-0.3c0.4-0.3,0.7-0.8,0.6-1.3l-0.1-4.4l2.7-3.5c0.3-0.4,0.4-0.9,0.2-1.4
						c-0.2-0.5-0.6-0.9-1-1l-4.3-1.3l-2.5-3.7c-0.3-0.4-0.8-0.7-1.3-0.7c-0.5,0-1,0.3-1.3,0.7l-2.5,3.7l-4.3,1.3
						c-0.5,0.1-0.9,0.5-1,1c-0.2,0.5-0.1,1,0.2,1.4L488.4,277.3z M491.7,272.1c0.2-0.1,0.5-0.2,0.6-0.4l2.2-3.2l2.2,3.2
						c0.1,0.2,0.4,0.4,0.6,0.4l3.8,1.1l-2.4,3.1c-0.2,0.2-0.2,0.4-0.2,0.7l0.1,3.9l-3.7-1.3c-0.2-0.1-0.5-0.1-0.7,0l-3.7,1.3
						l0.1-3.9c0-0.3-0.1-0.5-0.2-0.7l-2.4-3.1L491.7,272.1z"/>
					<linearGradient id="SVGID_5_" gradientUnits="userSpaceOnUse" x1="464.8195" y1="265.8163" x2="475.2094" y2="265.8163">
						<stop  offset="0" style="stop-color:#FF812D"/>
						<stop  offset="1" style="stop-color:#FFAF2D"/>
					</linearGradient>
					<path fill="url(#SVGID_5_)" d="M466.8,269.2l4.8,1c0.2,0,0.4,0.1,0.5,0.1c1,0,2-0.7,2.4-1.7l0.6-1.8c0.4-1.2-0.1-2.5-1.3-3.1
						l-4.4-2.1c-0.6-0.3-1.4-0.3-2-0.1c-0.7,0.3-1.2,0.8-1.4,1.5l-1,3c-0.2,0.7-0.2,1.4,0.2,2C465.5,268.6,466.1,269.1,466.8,269.2
						L466.8,269.2z M467,266.7l1-3c0-0.1,0.1-0.2,0.2-0.2c0,0,0.1,0,0.1,0c0,0,0.1,0,0.1,0l4.4,2.1c0.1,0.1,0.2,0.2,0.2,0.4
						l-0.6,1.8c-0.1,0.1-0.2,0.2-0.4,0.2l-4.8-1c-0.1,0-0.2-0.1-0.2-0.1S467,266.8,467,266.7L467,266.7z"/>
					<linearGradient id="SVGID_6_" gradientUnits="userSpaceOnUse" x1="471.1214" y1="258.257" x2="481.1897" y2="258.257">
						<stop  offset="0" style="stop-color:#FF812D"/>
						<stop  offset="1" style="stop-color:#FFAF2D"/>
					</linearGradient>
					<path fill="url(#SVGID_6_)" d="M478.9,262.8l1.5-1.3c1-0.8,1.1-2.2,0.4-3.3l-2.7-4.1c-0.4-0.6-1-1-1.7-1.1
						c-0.7-0.1-1.4,0.1-2,0.6l-2.4,2c-0.5,0.5-0.9,1.1-0.9,1.9c0,0.7,0.3,1.4,0.8,1.9l3.6,3.3c0.5,0.4,1.1,0.6,1.7,0.6
						C477.8,263.4,478.4,263.2,478.9,262.8L478.9,262.8z M477,261.1l-3.6-3.3c-0.1-0.1-0.1-0.2-0.1-0.2c0-0.1,0-0.1,0.1-0.2l2.4-2
						c0.1-0.1,0.1-0.1,0.2-0.1c0,0,0,0,0,0c0.1,0,0.1,0,0.2,0.1l2.7,4.1c0.1,0.1,0.1,0.3-0.1,0.4l-1.5,1.3
						C477.3,261.2,477.1,261.2,477,261.1L477,261.1z"/>
					<linearGradient id="SVGID_7_" gradientUnits="userSpaceOnUse" x1="465.1349" y1="276.2719" x2="475.3532" y2="276.2719">
						<stop  offset="0" style="stop-color:#FF812D"/>
						<stop  offset="1" style="stop-color:#FFAF2D"/>
					</linearGradient>
					<path fill="url(#SVGID_7_)" d="M474.9,274.1c-0.2-1.2-1.4-2.1-2.6-2l-4.9,0.3c-0.7,0-1.4,0.4-1.8,1c-0.4,0.6-0.6,1.3-0.5,2
						l0.6,3.1c0.1,0.7,0.6,1.3,1.2,1.7c0.4,0.2,0.8,0.3,1.3,0.3c0.3,0,0.5,0,0.8-0.1l4.6-1.5c1.2-0.4,1.9-1.6,1.7-2.8L474.9,274.1z
						 M473,276.8l-4.6,1.5c-0.1,0-0.2,0-0.3,0c0,0-0.1-0.1-0.1-0.2l-0.6-3.1c0-0.1,0-0.2,0.1-0.2c0,0,0.1-0.1,0.2-0.1l4.9-0.3
						c0,0,0,0,0,0c0.1,0,0.3,0.1,0.3,0.2l0.4,1.9C473.2,276.6,473.1,276.7,473,276.8L473,276.8z"/>
					<linearGradient id="SVGID_8_" gradientUnits="userSpaceOnUse" x1="513.8185" y1="265.8161" x2="524.2087" y2="265.8161">
						<stop  offset="0" style="stop-color:#FF812D"/>
						<stop  offset="1" style="stop-color:#FFAF2D"/>
					</linearGradient>
					<path fill="url(#SVGID_8_)" d="M514,266.8l0.6,1.8c0.4,1,1.3,1.7,2.4,1.7c0.2,0,0.3,0,0.5-0.1l4.8-1c0.7-0.2,1.3-0.6,1.6-1.2
						c0.3-0.6,0.4-1.4,0.2-2l-1-3c-0.2-0.7-0.7-1.2-1.4-1.5c-0.7-0.3-1.4-0.2-2,0.1l-4.4,2.1C514.1,264.3,513.5,265.6,514,266.8
						L514,266.8z M516.2,265.7l4.4-2.1c0,0,0.1,0,0.1,0c0,0,0.1,0,0.1,0c0,0,0.1,0.1,0.2,0.2l1,3c0,0.1,0,0.2,0,0.3
						c0,0-0.1,0.1-0.2,0.1l-4.8,1h0c-0.2,0-0.3-0.1-0.4-0.2l-0.6-1.8C516,265.9,516,265.8,516.2,265.7L516.2,265.7z"/>
					<linearGradient id="SVGID_9_" gradientUnits="userSpaceOnUse" x1="513.6753" y1="276.2716" x2="523.8935" y2="276.2716">
						<stop  offset="0" style="stop-color:#FF812D"/>
						<stop  offset="1" style="stop-color:#FFAF2D"/>
					</linearGradient>
					<path fill="url(#SVGID_9_)" d="M521.6,272.4l-4.9-0.3c-1.3-0.1-2.4,0.8-2.6,2l-0.4,1.9c-0.2,1.2,0.5,2.5,1.7,2.8l4.6,1.5
						c0.2,0.1,0.5,0.1,0.8,0.1c0.4,0,0.9-0.1,1.3-0.3c0.6-0.4,1-1,1.2-1.7l0.6-3.1c0.1-0.7,0-1.4-0.5-2
						C522.9,272.8,522.3,272.5,521.6,272.4L521.6,272.4z M521.7,275l-0.6,3.1c0,0.1-0.1,0.2-0.1,0.2c0,0-0.1,0.1-0.3,0l-4.6-1.5
						c-0.1,0-0.2-0.2-0.2-0.3l0.4-1.9c0-0.2,0.2-0.3,0.3-0.2l4.9,0.3c0.1,0,0.2,0.1,0.2,0.1C521.7,274.8,521.7,274.8,521.7,275
						L521.7,275z"/>
					<linearGradient id="SVGID_10_" gradientUnits="userSpaceOnUse" x1="507.8379" y1="258.257" x2="517.9063" y2="258.257">
						<stop  offset="0" style="stop-color:#FF812D"/>
						<stop  offset="1" style="stop-color:#FFAF2D"/>
					</linearGradient>
					<path fill="url(#SVGID_10_)" d="M517.9,257.6c0-0.7-0.3-1.4-0.9-1.9l-2.4-2c-0.5-0.5-1.3-0.7-2-0.6c-0.7,0.1-1.3,0.5-1.7,1.1
						l-2.7,4.1c-0.7,1-0.5,2.5,0.4,3.3l1.5,1.3c0.5,0.4,1,0.6,1.6,0.6c0.6,0,1.2-0.2,1.7-0.6l3.6-3.3
						C517.6,259,517.9,258.3,517.9,257.6z M515.6,257.9l-3.6,3.3c-0.1,0.1-0.3,0.1-0.4,0l-1.5-1.3c-0.1-0.1-0.1-0.3-0.1-0.4l2.7-4.1
						c0.1-0.1,0.2-0.1,0.2-0.1c0,0,0,0,0,0c0.1,0,0.1,0,0.2,0.1l2.4,2c0.1,0.1,0.1,0.2,0.1,0.2C515.7,257.7,515.7,257.8,515.6,257.9
						L515.6,257.9z"/>
				</g>
			</g>
		</g>
	</g>
</g>
</svg>
