<?xml version="1.0" encoding="utf-8"?>
<!-- Generator: Adobe Illustrator 18.0.0, SVG Export Plug-In . SVG Version: 6.00 Build 0)  -->
<!DOCTYPE svg PUBLIC "-//W3C//DTD SVG 1.1//EN" "http://www.w3.org/Graphics/SVG/1.1/DTD/svg11.dtd">
<svg version="1.1" id="Layer_1" xmlns="http://www.w3.org/2000/svg" xmlns:xlink="http://www.w3.org/1999/xlink" x="0px" y="0px"
	 viewBox="218 218 75 75" enable-background="new 218 218 75 75" xml:space="preserve">
<g>
	<g>
		<g>
			<linearGradient id="SVGID_1_" gradientUnits="userSpaceOnUse" x1="249.3138" y1="240.2819" x2="263.3605" y2="240.2819">
				<stop  offset="0" style="stop-color:#FF812D"/>
				<stop  offset="1" style="stop-color:#FFAF2D"/>
			</linearGradient>
			<path fill="url(#SVGID_1_)" d="M254.2,246.6c0.5,0.5,1.3,0.4,1.7-0.2l7.3-11c0.3-0.5,0.2-1.2-0.3-1.5c-0.5-0.3-1.2-0.2-1.5,0.3
				l-6.6,9.9l-3.6-3.5c-0.4-0.4-1.1-0.4-1.5,0c-0.4,0.4-0.4,1.1,0,1.5C249.7,242.2,254.2,246.6,254.2,246.6z"/>
		</g>
		<g>
			<g>
				<linearGradient id="SVGID_2_" gradientUnits="userSpaceOnUse" x1="234.7198" y1="241.9889" x2="276.2566" y2="241.9889">
					<stop  offset="0" style="stop-color:#FF812D"/>
					<stop  offset="1" style="stop-color:#FFAF2D"/>
				</linearGradient>
				<path fill="url(#SVGID_2_)" d="M255,263.2c0.2,0.1,0.4,0.1,0.7,0.1h0c0.2,0,0.5-0.1,0.7-0.2c16.6-7.9,19.4-25,19.9-30
					c0.1-1.2-0.5-2.2-1.6-2.7c-3.3-1.4-5.6-4.4-5.9-8c-0.1-1.1-1-2-2.1-2h0l-22.4,0.1c-1.1,0-2,0.9-2.1,2c-0.3,3.6-2.5,6.7-5.8,8.1
					c-1.1,0.5-1.7,1.5-1.6,2.7C235.3,238.5,238.3,255.5,255,263.2z M237.2,232.8c4-1.7,6.8-5.5,7.1-9.9l22.3-0.1
					c0.4,4.4,3.2,8.1,7.2,9.8c0.2,0.1,0.3,0.3,0.3,0.4c-0.4,4.7-3.1,20.6-18.4,28.1c-15.4-7.3-18.3-23.2-18.7-27.9
					C236.9,233.1,237,232.9,237.2,232.8z"/>
			</g>
		</g>
		<g>
			<linearGradient id="SVGID_3_" gradientUnits="userSpaceOnUse" x1="239.0704" y1="232.1931" x2="271.9254" y2="232.1931">
				<stop  offset="0" style="stop-color:#FF812D"/>
				<stop  offset="1" style="stop-color:#FFAF2D"/>
			</linearGradient>
			<path fill="url(#SVGID_3_)" d="M239.9,238.9c0.1,0.5,0.7,0.9,1.3,0.8c0.6-0.2,0.9-0.8,0.8-1.3c-0.3-1-0.5-2.1-0.7-3.1
				c3-1.9,5.2-4.8,6.3-8.2l15.8-0.1c1.1,3.4,3.4,6.2,6.3,8.1c-0.2,1-0.4,2.1-0.7,3.1c-0.2,0.6,0.2,1.2,0.8,1.3
				c0.6,0.2,1.2-0.2,1.3-0.8c0.3-1.2,0.6-2.4,0.8-3.6c0.1-0.7-0.2-1.3-0.8-1.7c-2.8-1.7-4.8-4.3-5.8-7.4c-0.2-0.7-0.9-1.2-1.6-1.2h0
				l-16.5,0.1c-0.7,0-1.4,0.5-1.6,1.2c-0.9,3.1-2.9,5.8-5.7,7.5c-0.6,0.4-0.9,1-0.8,1.7C239.3,236.4,239.6,237.7,239.9,238.9z"/>
		</g>
		<g>
			<linearGradient id="SVGID_4_" gradientUnits="userSpaceOnUse" x1="241.4688" y1="250.4084" x2="269.6155" y2="250.4084">
				<stop  offset="0" style="stop-color:#FF812D"/>
				<stop  offset="1" style="stop-color:#FFAF2D"/>
			</linearGradient>
			<path fill="url(#SVGID_4_)" d="M268.9,242.1c-0.6-0.2-1.2,0-1.4,0.6c-2.5,6.1-6.5,10.8-11.9,13.8c-5.4-3-9.5-7.6-12.1-13.7
				c-0.2-0.6-0.9-0.8-1.4-0.6c-0.6,0.2-0.8,0.9-0.6,1.4c2.8,6.7,7.3,11.7,13.3,14.9c0.3,0.1,0.5,0.2,0.8,0.2c0.3,0,0.6-0.1,0.8-0.2
				c5.9-3.3,10.3-8.4,13.1-15.1C269.8,243,269.5,242.3,268.9,242.1z"/>
		</g>
		<g>
			<g>
				<linearGradient id="SVGID_5_" gradientUnits="userSpaceOnUse" x1="221.3423" y1="280.3846" x2="229.076" y2="280.3846">
					<stop  offset="0" style="stop-color:#FF812D"/>
					<stop  offset="1" style="stop-color:#FFAF2D"/>
				</linearGradient>
				<path fill="url(#SVGID_5_)" d="M225.2,276.5c-2.1,0-3.9,1.7-3.9,3.9s1.7,3.9,3.9,3.9c2.1,0,3.9-1.7,3.9-3.9
					S227.3,276.5,225.2,276.5z M225.2,282.1c-0.9,0-1.7-0.8-1.7-1.7c0-0.9,0.8-1.7,1.7-1.7c0.9,0,1.7,0.8,1.7,1.7
					C226.9,281.3,226.1,282.1,225.2,282.1z"/>
			</g>
		</g>
		<g>
			<g>
				<linearGradient id="SVGID_6_" gradientUnits="userSpaceOnUse" x1="218.1969" y1="272.7228" x2="292.8031" y2="272.7228">
					<stop  offset="0" style="stop-color:#FF812D"/>
					<stop  offset="1" style="stop-color:#FFAF2D"/>
				</linearGradient>
				<path fill="url(#SVGID_6_)" d="M292,265.8c-1.4-2.1-4.2-2.6-6.3-1.2l-14.3,9.6l-3-0.2l-0.1-0.8c-0.3-3.1-2.6-5.5-5.7-5.9
					c0,0,0,0-0.1,0l-15.4-1.3c-0.5-0.1-2.2-0.6-6.8-3.2c-2.4-1.4-5.1-2.1-7.8-2.2v-2.9c0-1.4-1.2-2.6-2.6-2.6h-9.2
					c-1.4,0-2.6,1.2-2.6,2.6v28.2c0,1.4,1.2,2.6,2.6,2.6h9.2c1.4,0,2.6-1.2,2.6-2.6V285l13.5,5.1c0,0,1.1,0.4,3.1,0.2
					c0,0,22.4-3.2,22.4-3.2c0,0,0,0,0,0c1.9-0.3,3.7-1.1,5.2-2.3c0,0,0,0,0,0l14.4-13C293,270.3,293.3,267.7,292,265.8z
					 M289.8,270.1l-14.4,13c-1.2,1-2.6,1.6-4.1,1.9l-22.3,3.2c0,0,0,0,0,0c0,0,0,0,0,0c-0.7,0.1-1.4,0.1-2.1-0.1l-14.2-5.4v-12.5
					c0-0.6-0.5-1.1-1.1-1.1c-0.6,0-1.1,0.5-1.1,1.1v15.6c0,0.2-0.2,0.4-0.4,0.4h-9.2c-0.2,0-0.4-0.2-0.4-0.4v-28.2
					c0-0.2,0.2-0.4,0.4-0.4h9.2c0.2,0,0.4,0.2,0.4,0.4v7.6c0,0.6,0.5,1.1,1.1,1.1c0.6,0,1.1-0.5,1.1-1.1v-2.6
					c2.3,0.1,4.7,0.8,6.7,1.9c5.5,3.2,7.1,3.4,7.6,3.5c0,0,0,0,0.1,0l15.4,1.3c2,0.3,3.6,1.9,3.8,4l0.1,0.6l-20.6,1.3c0,0,0,0,0,0
					c-0.7-0.1-1.3-0.4-1.7-0.9c-0.4-0.5-1.1-0.5-1.5-0.1c-0.5,0.4-0.5,1.1-0.1,1.5c0.8,1,1.9,1.5,3.2,1.7c0.7,0.1,22.1-1.3,22.1-1.3
					l4.3,0.2c0.2,0,0.5-0.1,0.7-0.2l14.6-9.8c1.1-0.7,2.5-0.4,3.3,0.6C290.9,268,290.7,269.4,289.8,270.1z"/>
			</g>
		</g>
	</g>
</g>
</svg>
