<?xml version="1.0" encoding="utf-8"?>
<!-- Generator: Adobe Illustrator 18.0.0, SVG Export Plug-In . SVG Version: 6.00 Build 0)  -->
<!DOCTYPE svg PUBLIC "-//W3C//DTD SVG 1.1//EN" "http://www.w3.org/Graphics/SVG/1.1/DTD/svg11.dtd">
<svg version="1.1" id="Layer_1" xmlns="http://www.w3.org/2000/svg" xmlns:xlink="http://www.w3.org/1999/xlink" x="0px" y="0px"
	 viewBox="298.7 218 75 75" enable-background="new 298.7 218 75 75" xml:space="preserve">
<g>
	<linearGradient id="SVGID_1_" gradientUnits="userSpaceOnUse" x1="361.6358" y1="282.3636" x2="364.5406" y2="282.3636">
		<stop  offset="0" style="stop-color:#FF812D"/>
		<stop  offset="1" style="stop-color:#FFAF2D"/>
	</linearGradient>
	<path fill="url(#SVGID_1_)" d="M362.1,281.3L362.1,281.3c-0.6,0.6-0.6,1.5,0,2.1c0.3,0.3,0.7,0.4,1,0.4s0.7-0.1,1-0.4l0,0
		c0.6-0.6,0.6-1.5,0-2C363.6,280.8,362.6,280.8,362.1,281.3z"/>
	<linearGradient id="SVGID_2_" gradientUnits="userSpaceOnUse" x1="299.2932" y1="255.5" x2="373.1424" y2="255.5">
		<stop  offset="0" style="stop-color:#FF812D"/>
		<stop  offset="1" style="stop-color:#FFAF2D"/>
	</linearGradient>
	<path fill="url(#SVGID_2_)" d="M364.1,239.7c-4.1-4.1-9-6.8-14.5-8.2v-3.2c2.6-0.1,4.8-2.2,4.8-4.9c0-2.7-2.2-4.9-4.9-4.9h-14.4
		c-2.7,0-4.9,2.2-4.9,4.9c0,2.7,2.1,4.8,4.8,4.9v3.2c-3.2,0.8-6.3,2.1-9.2,3.9l-7.8-10c-0.6-0.7-1.5-1.2-2.4-1.2c0,0,0,0,0,0
		c-0.9,0-1.8,0.4-2.4,1.2l-10.2,13.1c0,0,0,0,0,0c-2.3,2.9-3.6,6.5-3.6,10.2c0,7.6,5.2,13.9,12.2,15.7c1.5,15.8,14.7,27.9,30.7,27.9
		c6.1,0,12-1.8,17.1-5.2c0.7-0.4,0.8-1.3,0.4-2c-0.4-0.7-1.3-0.8-2-0.4c-4.6,3.1-10,4.7-15.5,4.7c-14.2,0-26.1-10.6-27.8-24.6
		c0.4,0,0.7,0,1.1,0c1,0,1.9-0.1,2.8-0.2c0.7,5.2,3.1,10.1,6.8,13.8c0,0,0,0,0,0c0,0,0,0,0,0c0.2,0.2,0.5,0.5,0.7,0.7
		c4.5,4.1,10.3,6.4,16.3,6.4c6.6,0,12.6-2.7,16.9-6.9c0,0,0.1-0.1,0.1-0.1c0,0,0.1-0.1,0.1-0.1c4.3-4.4,6.9-10.3,6.9-16.9
		s-2.7-12.6-6.9-16.9c0,0-0.2-0.2-0.3-0.3c-4.4-4.3-10.3-6.9-16.9-6.9c-4.5,0-8.7,1.2-12.5,3.5c-0.5-0.8-1-1.6-1.6-2.3
		c0,0,0-0.1-0.1-0.1l-0.6-0.8c4.4-2.7,9.5-4.2,14.7-4.2c15.4,0,28,12.6,28,28c0,5.5-1.6,10.9-4.7,15.5c-0.4,0.7-0.3,1.6,0.4,2
		c0.2,0.2,0.5,0.2,0.8,0.2c0.5,0,0.9-0.2,1.2-0.6c3.4-5.1,5.2-11,5.2-17.1C373.1,253.3,369.9,245.6,364.1,239.7z M302.2,248.8
		c0-3.1,1.1-6,3-8.4c0,0,0,0,0.1-0.1l10.2-13c0,0,0.1-0.1,0.1-0.1c0.1,0,0.1,0,0.1,0.1l10.1,12.9c0,0,0.1,0.1,0.1,0.1
		c2,2.4,3.1,5.4,3.1,8.5c0,7.4-6,13.3-13.4,13.3C308.2,262.1,302.2,256.2,302.2,248.8z M347.3,260.1c-0.5-1.7-1.8-3.1-3.5-3.5v-16.2
		c4.8,0.3,9.1,2.2,12.5,5.2l-2.2,2.2c-0.6,0.6-0.6,1.5,0,2c0.3,0.3,0.7,0.4,1,0.4s0.7-0.1,1-0.4l2.2-2.2c3,3.4,4.9,7.7,5.2,12.5
		H347.3z M342.3,259.3c1.3,0,2.3,1,2.3,2.3s-1,2.3-2.3,2.3c-1.3,0-2.3-1-2.3-2.3S341,259.3,342.3,259.3z M340.8,240.4v16.2
		c-2.2,0.6-3.8,2.6-3.8,5c0,2.9,2.3,5.2,5.2,5.2c2.4,0,4.4-1.6,5-3.8h16.2c-0.3,4.8-2.2,9.1-5.2,12.5l-2.2-2.2c-0.6-0.6-1.5-0.6-2,0
		c-0.6,0.6-0.6,1.5,0,2l2.2,2.2c-3.4,3-7.7,4.9-12.5,5.2v-3.1c0-0.8-0.6-1.4-1.4-1.4s-1.4,0.6-1.4,1.4v3.1
		c-4.7-0.3-9.1-2.2-12.5-5.2l2.1-2.1c0.6-0.6,0.6-1.5,0-2c-0.6-0.6-1.5-0.6-2,0l-2.1,2.1c-2.8-3.1-4.6-7.1-5.1-11.5
		c6.2-2.3,10.7-8.2,10.7-15.2c0-1.8-0.3-3.5-0.9-5.2C333.9,241.7,337.3,240.6,340.8,240.4z M333,223.5c0-1.1,0.9-2,2-2h14.4
		c1.1,0,2,0.9,2,2c0,1.1-0.9,2-2,2h-14.4C333.9,225.5,333,224.6,333,223.5z M337.8,231v-2.6h8.9v2.6c-1.5-0.2-3-0.3-4.5-0.3
		C340.8,230.7,339.3,230.8,337.8,231z"/>
	<linearGradient id="SVGID_3_" gradientUnits="userSpaceOnUse" x1="314.1133" y1="252.4543" x2="324.3265" y2="252.4543">
		<stop  offset="0" style="stop-color:#FF812D"/>
		<stop  offset="1" style="stop-color:#FFAF2D"/>
	</linearGradient>
	<path fill="url(#SVGID_3_)" d="M322.9,247.4c-0.8,0-1.4,0.6-1.4,1.4c0,3.2-2.6,5.9-5.9,5.9c-0.8,0-1.4,0.6-1.4,1.4
		c0,0.8,0.6,1.4,1.4,1.4c4.8,0,8.8-3.9,8.8-8.8C324.3,248,323.7,247.4,322.9,247.4z"/>
</g>
</svg>
