<?xml version="1.0" encoding="utf-8"?>
<!-- Generator: Adobe Illustrator 18.0.0, SVG Export Plug-In . SVG Version: 6.00 Build 0)  -->
<!DOCTYPE svg PUBLIC "-//W3C//DTD SVG 1.1//EN" "http://www.w3.org/Graphics/SVG/1.1/DTD/svg11.dtd">
<svg version="1.1" id="Layer_1" xmlns="http://www.w3.org/2000/svg" xmlns:xlink="http://www.w3.org/1999/xlink" x="0px" y="0px"
	 viewBox="377.4 218 75 75" enable-background="new 377.4 218 75 75" xml:space="preserve">
<g>
	<g>
		<linearGradient id="SVGID_1_" gradientUnits="userSpaceOnUse" x1="377.5904" y1="255.5" x2="452.153" y2="255.5">
			<stop  offset="0" style="stop-color:#FF812D"/>
			<stop  offset="1" style="stop-color:#FFAF2D"/>
		</linearGradient>
		<path fill="url(#SVGID_1_)" d="M451,254.3h-10.3l11.2-11.2c0.5-0.5,0.5-1.2,0-1.7L429,218.6c-0.5-0.5-1.2-0.5-1.7,0l-35.7,35.7
			h-12.7c-0.7,0-1.2,0.5-1.2,1.2v31.3c0,0.7,0.5,1.2,1.2,1.2h17.5l4.5,4.5c0.2,0.2,0.5,0.4,0.9,0.4s0.6-0.1,0.9-0.4l4.5-4.5h44
			c0.7,0,1.2-0.5,1.2-1.2v-31.3C452.2,254.8,451.6,254.3,451,254.3z M428.1,221.1l21.1,21.1l-12,12H428c-0.3-3.1-1.6-5.9-3.8-8.2
			c-5.2-5.2-13.5-5.2-18.7,0c-2.2,2.2-3.5,5.1-3.8,8.2h-6.8L428.1,221.1z M409.1,254.3c-0.2-0.8,0.1-1.6,0.6-2.2l2.2,2.2H409.1z
			 M422.1,254.3c-0.1-0.2-0.3-0.3-0.4-0.5c-1.9-1.9-4.9-1.9-6.8,0l-3.4-3.4c0.9-0.9,2.5-0.9,3.4,0l1.7-1.7c-0.9-0.9-2.1-1.4-3.4-1.4
			s-2.5,0.5-3.4,1.4l0,0l-0.9-0.9l-1.7,1.7l0.9,0.9c-1.1,1.1-1.5,2.5-1.4,3.9h-2.6c0.3-2.4,1.3-4.7,3.1-6.5c4.2-4.2,11.1-4.2,15.3,0
			c1.8,1.8,2.8,4,3.1,6.5L422.1,254.3L422.1,254.3z M401.6,289.9l-1.9-1.9h3.8L401.6,289.9z M449.7,285.6H380v-28.9h69.8V285.6z"/>
		<linearGradient id="SVGID_2_" gradientUnits="userSpaceOnUse" x1="408.8584" y1="271.1342" x2="420.8846" y2="271.1342">
			<stop  offset="0" style="stop-color:#FF812D"/>
			<stop  offset="1" style="stop-color:#FFAF2D"/>
		</linearGradient>
		<path fill="url(#SVGID_2_)" d="M411.3,274.7h-2.4c0,2.7,2.2,4.8,4.8,4.8v1.2h2.4v-1.2c2.7,0,4.8-2.2,4.8-4.8s-2.2-4.8-4.8-4.8
			v-4.8c1.3,0,2.4,1.1,2.4,2.4h2.4c0-2.7-2.2-4.8-4.8-4.8v-1.2h-2.4v1.2c-2.7,0-4.8,2.2-4.8,4.8s2.2,4.8,4.8,4.8v4.8
			C412.3,277.1,411.3,276.1,411.3,274.7z M411.3,267.5c0-1.3,1.1-2.4,2.4-2.4v4.8C412.3,269.9,411.3,268.9,411.3,267.5z
			 M416.1,272.3c1.3,0,2.4,1.1,2.4,2.4c0,1.3-1.1,2.4-2.4,2.4V272.3z"/>
		<linearGradient id="SVGID_3_" gradientUnits="userSpaceOnUse" x1="401.6427" y1="271.1342" x2="428.1003" y2="271.1342">
			<stop  offset="0" style="stop-color:#FF812D"/>
			<stop  offset="1" style="stop-color:#FFAF2D"/>
		</linearGradient>
		<path fill="url(#SVGID_3_)" d="M414.9,284.4c7.3,0,13.2-5.9,13.2-13.2s-5.9-13.2-13.2-13.2s-13.2,5.9-13.2,13.2
			S407.6,284.4,414.9,284.4z M414.9,260.3c6,0,10.8,4.9,10.8,10.8s-4.9,10.8-10.8,10.8s-10.8-4.9-10.8-10.8S408.9,260.3,414.9,260.3
			z"/>
		<linearGradient id="SVGID_4_" gradientUnits="userSpaceOnUse" x1="431.7082" y1="271.1342" x2="447.3422" y2="271.1342">
			<stop  offset="0" style="stop-color:#FF812D"/>
			<stop  offset="1" style="stop-color:#FFAF2D"/>
		</linearGradient>
		<path fill="url(#SVGID_4_)" d="M447.3,282v-21.6c0-0.7-0.5-1.2-1.2-1.2h-14.4v2.4h13.2v19.2h-13.2v2.4h14.4
			C446.8,283.2,447.3,282.6,447.3,282z"/>
		<linearGradient id="SVGID_5_" gradientUnits="userSpaceOnUse" x1="382.4008" y1="271.1342" x2="398.0349" y2="271.1342">
			<stop  offset="0" style="stop-color:#FF812D"/>
			<stop  offset="1" style="stop-color:#FFAF2D"/>
		</linearGradient>
		<path fill="url(#SVGID_5_)" d="M383.6,283.2H398v-2.4h-13.2v-19.2H398v-2.4h-14.4c-0.7,0-1.2,0.5-1.2,1.2V282
			C382.4,282.6,382.9,283.2,383.6,283.2z"/>
		<linearGradient id="SVGID_6_" gradientUnits="userSpaceOnUse" x1="431.7082" y1="277.1473" x2="434.1134" y2="277.1473">
			<stop  offset="0" style="stop-color:#FF812D"/>
			<stop  offset="1" style="stop-color:#FFAF2D"/>
		</linearGradient>
		<path fill="url(#SVGID_6_)" d="M431.7,275.9h2.4v2.4h-2.4V275.9z"/>
		<linearGradient id="SVGID_7_" gradientUnits="userSpaceOnUse" x1="436.5186" y1="277.1473" x2="438.9239" y2="277.1473">
			<stop  offset="0" style="stop-color:#FF812D"/>
			<stop  offset="1" style="stop-color:#FFAF2D"/>
		</linearGradient>
		<path fill="url(#SVGID_7_)" d="M436.5,275.9h2.4v2.4h-2.4V275.9z"/>
		<linearGradient id="SVGID_8_" gradientUnits="userSpaceOnUse" x1="431.7082" y1="265.1211" x2="434.1134" y2="265.1211">
			<stop  offset="0" style="stop-color:#FF812D"/>
			<stop  offset="1" style="stop-color:#FFAF2D"/>
		</linearGradient>
		<path fill="url(#SVGID_8_)" d="M431.7,263.9h2.4v2.4h-2.4V263.9z"/>
		<linearGradient id="SVGID_9_" gradientUnits="userSpaceOnUse" x1="436.5186" y1="265.1211" x2="438.9239" y2="265.1211">
			<stop  offset="0" style="stop-color:#FF812D"/>
			<stop  offset="1" style="stop-color:#FFAF2D"/>
		</linearGradient>
		<path fill="url(#SVGID_9_)" d="M436.5,263.9h2.4v2.4h-2.4V263.9z"/>
		<linearGradient id="SVGID_10_" gradientUnits="userSpaceOnUse" x1="417.373" y1="239.2238" x2="444.9361" y2="239.2238">
			<stop  offset="0" style="stop-color:#FF812D"/>
			<stop  offset="1" style="stop-color:#FFAF2D"/>
		</linearGradient>
		<path fill="url(#SVGID_10_)" d="M428.4,228.3l13.6,13.6l-9.4,9.4l1.7,1.7l10.2-10.2c0.5-0.5,0.5-1.2,0-1.7l-15.3-15.3
			c-0.5-0.5-1.2-0.5-1.7,0L417.4,236l1.7,1.7L428.4,228.3z"/>
		<linearGradient id="SVGID_11_" gradientUnits="userSpaceOnUse" x1="429.2704" y1="247.8994" x2="432.6714" y2="247.8994">
			<stop  offset="0" style="stop-color:#FF812D"/>
			<stop  offset="1" style="stop-color:#FFAF2D"/>
		</linearGradient>
		<path fill="url(#SVGID_11_)" d="M429.3,247.9l1.7-1.7l1.7,1.7l-1.7,1.7L429.3,247.9z"/>
		<linearGradient id="SVGID_12_" gradientUnits="userSpaceOnUse" x1="432.6705" y1="244.4977" x2="436.0715" y2="244.4977">
			<stop  offset="0" style="stop-color:#FF812D"/>
			<stop  offset="1" style="stop-color:#FFAF2D"/>
		</linearGradient>
		<path fill="url(#SVGID_12_)" d="M432.7,244.5l1.7-1.7l1.7,1.7l-1.7,1.7L432.7,244.5z"/>
		<linearGradient id="SVGID_13_" gradientUnits="userSpaceOnUse" x1="420.7677" y1="239.3965" x2="424.1687" y2="239.3965">
			<stop  offset="0" style="stop-color:#FF812D"/>
			<stop  offset="1" style="stop-color:#FFAF2D"/>
		</linearGradient>
		<path fill="url(#SVGID_13_)" d="M420.8,239.4l1.7-1.7l1.7,1.7l-1.7,1.7L420.8,239.4z"/>
		<linearGradient id="SVGID_14_" gradientUnits="userSpaceOnUse" x1="424.1679" y1="235.9949" x2="427.5689" y2="235.9949">
			<stop  offset="0" style="stop-color:#FF812D"/>
			<stop  offset="1" style="stop-color:#FFAF2D"/>
		</linearGradient>
		<path fill="url(#SVGID_14_)" d="M424.2,236l1.7-1.7l1.7,1.7l-1.7,1.7L424.2,236z"/>
		<linearGradient id="SVGID_15_" gradientUnits="userSpaceOnUse" x1="390.8192" y1="265.1211" x2="393.2244" y2="265.1211">
			<stop  offset="0" style="stop-color:#FF812D"/>
			<stop  offset="1" style="stop-color:#FFAF2D"/>
		</linearGradient>
		<path fill="url(#SVGID_15_)" d="M390.8,263.9h2.4v2.4h-2.4V263.9z"/>
		<linearGradient id="SVGID_16_" gradientUnits="userSpaceOnUse" x1="395.6296" y1="265.1211" x2="398.0349" y2="265.1211">
			<stop  offset="0" style="stop-color:#FF812D"/>
			<stop  offset="1" style="stop-color:#FFAF2D"/>
		</linearGradient>
		<path fill="url(#SVGID_16_)" d="M395.6,263.9h2.4v2.4h-2.4V263.9z"/>
		<linearGradient id="SVGID_17_" gradientUnits="userSpaceOnUse" x1="390.8192" y1="277.1473" x2="393.2244" y2="277.1473">
			<stop  offset="0" style="stop-color:#FF812D"/>
			<stop  offset="1" style="stop-color:#FFAF2D"/>
		</linearGradient>
		<path fill="url(#SVGID_17_)" d="M390.8,275.9h2.4v2.4h-2.4V275.9z"/>
		<linearGradient id="SVGID_18_" gradientUnits="userSpaceOnUse" x1="395.6296" y1="277.1473" x2="398.0349" y2="277.1473">
			<stop  offset="0" style="stop-color:#FF812D"/>
			<stop  offset="1" style="stop-color:#FFAF2D"/>
		</linearGradient>
		<path fill="url(#SVGID_18_)" d="M395.6,275.9h2.4v2.4h-2.4V275.9z"/>
	</g>
</g>
</svg>
